<svg width="324" height="324" version="1.1" xmlns="http://www.w3.org/2000/svg" desc="Created with imagetracer.js version 1.2.6" ><path fill="rgb(18,20,43)" stroke="rgb(18,20,43)" stroke-width="1" opacity="0.7568627450980392" d="M 168.5 40 Q 175.4 39.1 177 43.5 L 178 47 L 174 45.5 L 172.5 43 Q 167.8 42.3 167 45.5 L 166 51.5 L 168.5 55 Q 174.8 56.9 173 52 L 170 50.5 Q 169.1 47.1 174.5 49 L 177 50 L 176 57 Q 173.6 58.8 167.5 58 Q 161.5 56.5 163 47.5 L 165 42 L 168.5 40 Z " /><path fill="rgb(18,20,43)" stroke="rgb(18,20,43)" stroke-width="1" opacity="0.7568627450980392" d="M 186.5 42 L 196 45 Q 197.5 48.8 194.5 48 L 188 46 L 187 50 L 193 52 Q 194.3 55.3 189.5 54 L 186.5 53 L 185 56.5 L 192 60.5 Q 192.8 63.1 189.5 62 L 181 59 L 181 55.5 L 186.5 42 Z " /><path fill="rgb(18,20,43)" stroke="rgb(18,20,43)" stroke-width="1" opacity="0.7568627450980392" d="M 201 47 L 214 52 L 212.5 55 L 208 53 L 201.5 66 Q 197.3 64.3 200 62.5 L 205 51.5 L 201 48.5 L 201 47 Z " /><path fill="rgb(18,20,43)" stroke="rgb(18,20,43)" stroke-width="1" opacity="0.7568627450980392" d="M 141.5 48 Q 145.3 47.3 146 49.5 Q 146.8 53.3 144.5 54 Q 140.8 54.8 140 52.5 Q 139.3 48.8 141.5 48 Z " /><path fill="rgb(18,20,43)" stroke="rgb(18,20,43)" stroke-width="1" opacity="0.7568627450980392" d="M 112 51 Q 115.7 49.5 115 52.5 L 120 63.5 L 120 67 Q 115.9 68.7 117 64.5 L 114.5 61 L 108 63.5 L 110 71 Q 105.9 72.7 107 68.5 L 102 55.5 L 105 54 L 107 60 L 114 57.5 L 112 51 Z " /><path fill="rgb(18,20,43)" stroke="rgb(18,20,43)" stroke-width="1" opacity="0.7568627450980392" d="M 228.5 60 L 230 63.5 L 220.5 76 L 218 75 L 219 71.5 L 228.5 60 Z " /><path fill="rgb(18,20,43)" stroke="rgb(18,20,43)" stroke-width="1" opacity="0.7568627450980392" d="M 92.5 62 Q 98.8 60.8 100 64.5 L 97.5 66 L 92.5 65 Q 90 66 91 70.5 L 95.5 76 Q 100.3 76.8 101 73.5 L 100 71.5 L 102.5 70 Q 104.8 70.8 104 74.5 L 99.5 79 L 94.5 79 L 90 75.5 Q 87 72.5 88 65.5 L 92.5 62 Z " /><path fill="rgb(18,20,43)" stroke="rgb(18,20,43)" stroke-width="1" opacity="0.7568627450980392" d="M 237.5 66 L 240 67.5 L 237 79.5 L 240.5 77 L 245.5 74 L 247 75.5 L 235.5 87 L 233 85.5 L 235 73.5 L 227.5 80 L 225 77.5 L 237.5 66 Z " /><path fill="rgb(18,20,43)" stroke="rgb(18,20,43)" stroke-width="1" opacity="0.7568627450980392" d="M 80.5 72 Q 82.8 71.3 82 73.5 L 90 82.5 L 90 86.5 L 85.5 91 L 80.5 91 L 71 80.5 L 74.5 79 L 82.5 88 Q 86.5 88.5 87 85.5 L 87 83.5 L 79 73.5 L 80.5 72 Z " /><path fill="rgb(18,20,43)" stroke="rgb(18,20,43)" stroke-width="1" opacity="0.7568627450980392" d="M 66.5 89 Q 73.1 89.9 76 94.5 L 77 101.5 L 74.5 105 L 68.5 106 L 62 101.5 L 60 95.5 L 64.5 90 L 66.5 89 Z M 67 92 L 63 95 L 64 99 L 70 103 L 73 102 Q 76 103 74 98 L 67 92 Z " /><path fill="rgb(18,20,43)" stroke="rgb(18,20,43)" stroke-width="1" opacity="0.7568627450980392" d="M 258 89 L 262 91.5 L 266 101 Q 262.2 102.5 263 99.5 L 261.5 97 L 248 104 L 247 101.5 L 260 94.5 L 258 89 Z " /><path fill="rgb(18,20,43)" stroke="rgb(18,20,43)" stroke-width="1" opacity="0.7568627450980392" d="M 56.5 103 Q 59.1 102.2 58 105.5 L 56 108.5 L 68 115.5 Q 69.3 119.3 65.5 118 L 54.5 111 L 51.5 115 Q 48.9 115.8 50 112.5 L 56.5 103 Z " /><path fill="rgb(18,20,43)" stroke="rgb(18,20,43)" stroke-width="1" opacity="0.7568627450980392" d="M 261.5 106 Q 269.5 104.5 272 108.5 L 273 115.5 L 265.5 121 L 260.5 121 L 256 117.5 L 255 113.5 L 259.5 107 L 261.5 106 Z M 264 109 L 259 111 L 258 114 L 261 118 L 269 116 Q 271 115 270 111 Q 269 108 264 109 Z " /><path fill="rgb(18,20,43)" stroke="rgb(18,20,43)" stroke-width="1" opacity="0.7568627450980392" d="M 276.5 124 L 279 125.5 L 279 128 L 273.5 128 L 265 130 Q 263.8 134.6 266.5 136 L 280 134 Q 281.5 137.8 278.5 137 L 271.5 139 L 265.5 139 Q 260.9 137.1 262 129.5 L 266.5 126 L 276.5 124 Z " /><path fill="rgb(18,20,43)" stroke="rgb(18,20,43)" stroke-width="1" opacity="0.7568627450980392" d="M 140 130 L 194 130 L 194 184 L 186.5 184 L 186 183.5 L 186 144.5 L 134.5 195 L 129 190.5 L 129 188.5 L 179 138.5 L 140.5 138 L 139 136.5 L 140 134.5 L 139 132.5 L 140 130 Z " /><path fill="rgb(18,20,43)" stroke="rgb(18,20,43)" stroke-width="1" opacity="0.7568627450980392" d="M 45.5 131 L 61 136 Q 62.5 139.8 59.5 139 L 49 142 Q 47.8 145 51.5 144 L 58 146 Q 59.8 150.5 54.5 149 L 41 145 L 42.5 141 L 54 137.5 L 44 135 L 45.5 131 Z " /><path fill="rgb(18,20,43)" stroke="rgb(18,20,43)" stroke-width="1" opacity="0.7568627450980392" d="M 270.5 143 Q 279.2 141.3 282 145.5 L 283 152.5 L 280.5 156 L 278.5 157 L 277 153 Q 280.7 154.5 280 151.5 L 280 149.5 Q 281.1 146.2 278.5 147 Q 277 144.5 271.5 146 L 268 148.5 Q 267.3 152.3 269.5 153 L 272 154.5 Q 273.1 157.8 270.5 157 L 266 153.5 L 265 148.5 L 268.5 144 L 270.5 143 Z " /><path fill="rgb(18,20,43)" stroke="rgb(18,20,43)" stroke-width="1" opacity="0.7568627450980392" d="M 41 153 L 55.5 154 L 58 155 Q 59.8 160.3 52.5 158 L 41 156 L 41 153 Z " /><path fill="rgb(18,20,43)" stroke="rgb(18,20,43)" stroke-width="1" opacity="0.7568627450980392" d="M 267 161 L 284 163 L 284 167 L 282.5 167 L 277 166 L 276 173 L 283 174 L 281.5 177 L 266.5 175 L 265 173.5 L 266.5 171 L 272.5 172 Q 275.5 170.4 274 165 L 267 164 L 267 161 Z " /><path fill="rgb(18,20,43)" stroke="rgb(18,20,43)" stroke-width="1" opacity="0.7568627450980392" d="M 41 171 L 44 171 L 44 176 L 58.5 176 L 59 179 L 44 180 L 45 183.5 L 42 185 L 41 171 Z " /><path fill="rgb(18,20,43)" stroke="rgb(18,20,43)" stroke-width="1" opacity="0.7568627450980392" d="M 60.5 186 L 63 198 L 46 201 L 44 190 Q 48.5 188.3 47 193.5 L 48 197 Q 54.4 199.3 52 191.5 Q 49.8 190.3 52.5 189 Q 55.5 188.1 54 192.5 L 55 196 L 60 195 L 59 187.5 L 60.5 186 Z " /><path fill="rgb(18,20,43)" stroke="rgb(18,20,43)" stroke-width="1" opacity="0.7568627450980392" d="M 265.5 196 Q 269.3 195.3 270 197.5 Q 270.8 201.3 268.5 202 Q 264.8 202.8 264 200.5 Q 263.3 196.8 265.5 196 Z " /><path fill="rgb(18,20,43)" stroke="rgb(18,20,43)" stroke-width="1" opacity="0.7568627450980392" d="M 63.5 203 L 68 206.5 L 69 213.5 Q 66 220 55.5 219 Q 51.1 216.9 51 210.5 L 53.5 207 L 56 208.5 L 54 213.5 Q 55 217 60.5 216 L 66 212.5 Q 67 208 64.5 207 Q 60.1 205.5 61 208.5 L 62 210.5 Q 60.5 213.5 59 210.5 L 58 205 L 63.5 203 Z " /><path fill="rgb(18,20,43)" stroke="rgb(18,20,43)" stroke-width="1" opacity="0.7568627450980392" d="M 252.5 217 Q 260 217.5 263 222.5 L 264 229.5 L 259.5 234 L 255.5 234 Q 252.5 232.5 255.5 231 Q 260.3 231.8 261 228.5 L 261 225.5 L 256.5 221 L 252.5 220 Q 249.3 220.8 250 225.5 L 251.5 227 Q 253.7 221.8 256 225.5 L 251.5 231 L 246 224.5 L 250.5 218 L 252.5 217 Z " /><path fill="rgb(18,20,43)" stroke="rgb(18,20,43)" stroke-width="1" opacity="0.7568627450980392" d="M 241.5 230 L 253 243.5 L 244.5 250 Q 241 248 245.5 246 L 249 243.5 L 246.5 240 L 240 244 L 241.5 240 L 244 238.5 L 241.5 234 L 234 239 Q 232.5 235.2 235.5 236 L 241.5 230 Z " /><path fill="rgb(18,20,43)" stroke="rgb(18,20,43)" stroke-width="1" opacity="0.7568627450980392" d="M 75.5 232 Q 79.3 231.3 80 233.5 Q 80.8 237.3 78.5 238 Q 74.8 238.8 74 236.5 Q 73.3 232.8 75.5 232 Z " /><path fill="rgb(18,20,43)" stroke="rgb(18,20,43)" stroke-width="1" opacity="0.7568627450980392" d="M 227.5 243 L 236.5 255 L 240.5 252 L 242 254.5 L 230.5 262 L 229 260.5 L 233 256.5 L 232 255.5 L 226 244.5 L 227.5 243 Z " /><path fill="rgb(18,20,43)" stroke="rgb(18,20,43)" stroke-width="1" opacity="0.7568627450980392" d="M 99.5 246 L 102 247.5 L 98 253.5 Q 98.5 257.5 103.5 257 L 107 252 L 110 253.5 L 99.5 267 L 97 265.5 L 101 259.5 L 95.5 255 L 91.5 260 L 89 258.5 L 99.5 246 Z " /><path fill="rgb(18,20,43)" stroke="rgb(18,20,43)" stroke-width="1" opacity="0.7568627450980392" d="M 208 255 L 212 256.5 L 217 271 L 213 269.5 L 208 255 Z " /><path fill="rgb(18,20,43)" stroke="rgb(18,20,43)" stroke-width="1" opacity="0.7568627450980392" d="M 115.5 256 Q 121.7 255.3 123 259.5 L 124 264.5 Q 122.8 270.3 118.5 273 L 113.5 274 L 108 269.5 Q 106.1 263.2 111 265 L 111 270 L 112.5 270 L 115.5 271 Q 120.1 268.1 121 261.5 L 115.5 259 Q 113.7 262.8 112 259.5 L 113.5 257 L 115.5 256 Z " /><path fill="rgb(18,20,43)" stroke="rgb(18,20,43)" stroke-width="1" opacity="0.7568627450980392" d="M 201.5 259 L 204 260.5 L 207 276 L 204.5 277 L 195 268.5 L 197 277.5 L 194.5 279 L 193 277.5 L 190 262 L 193.5 262 L 201.5 270 L 202 265.5 L 200 260.5 L 201.5 259 Z " /><path fill="rgb(18,20,43)" stroke="rgb(18,20,43)" stroke-width="1" opacity="0.7568627450980392" d="M 132.5 262 Q 138.1 261.9 140 265.5 L 141 269.5 L 137 281 Q 132.5 282.8 134 277.5 L 137 271.5 L 137 266.5 L 133.5 265 Q 128.3 269.5 128 278 L 124 276.5 L 127 270.5 L 127 267.5 L 130.5 263 L 132.5 262 Z " /><path fill="rgb(18,20,43)" stroke="rgb(18,20,43)" stroke-width="1" opacity="0.7568627450980392" d="M 150.5 266 Q 155.9 265.4 158 267 L 160 270.5 L 160 276.5 L 155.5 283 L 150.5 284 L 146 280.5 L 145 273.5 L 148.5 267 L 150.5 266 Z M 152 269 L 149 272 L 148 276 L 149 280 L 152 281 L 155 280 Q 158 278 157 272 Q 156 268 152 269 Z " /><path fill="rgb(18,20,43)" stroke="rgb(18,20,43)" stroke-width="1" opacity="0.7568627450980392" d="M 168 266 L 171 266.5 L 171 279.5 Q 172.4 282.1 177 281.5 L 175.5 283 L 163 283 Q 161.3 278.5 166.5 280 L 168 280.5 L 168 266 Z " /><path fill="rgb(0,0,0)" stroke="rgb(0,0,0)" stroke-width="1" opacity="0" d="M 0 0 L 324 0 L 324 324 L 0 324 L 0 0 Z M 169 40 L 165 42 L 163 48 Q 162 57 168 58 Q 174 59 176 57 L 177 50 L 175 49 Q 169 47 170 51 L 173 52 Q 175 57 169 55 L 166 52 L 167 46 Q 168 42 173 43 L 174 46 L 178 47 L 177 44 Q 175 39 169 40 Z M 187 42 L 181 56 L 181 59 L 190 62 Q 193 63 192 61 L 185 57 L 187 53 L 190 54 Q 194 55 193 52 L 187 50 L 188 46 L 195 48 Q 197 49 196 45 L 187 42 Z M 201 47 L 201 49 L 205 52 L 200 63 Q 197 64 202 66 L 208 53 L 213 55 L 214 52 L 201 47 Z M 142 48 Q 139 49 140 53 Q 141 55 145 54 Q 147 53 146 50 Q 145 47 142 48 Z M 112 51 L 114 58 L 107 60 L 105 54 L 102 56 L 107 69 Q 106 73 110 71 L 108 64 L 115 61 L 117 65 Q 116 69 120 67 L 120 64 L 115 53 Q 116 50 112 51 Z M 229 60 L 219 72 L 218 75 L 221 76 L 230 64 L 229 60 Z M 93 62 L 88 66 Q 87 73 90 76 L 95 79 L 100 79 L 104 75 Q 105 71 103 70 L 100 72 L 101 74 Q 100 77 96 76 L 91 71 Q 90 66 93 65 L 98 66 L 100 65 Q 99 61 93 62 Z M 238 66 L 225 78 L 228 80 L 236 73 L 233 82 L 233 86 L 236 87 L 247 76 L 246 74 L 241 77 L 237 80 L 240 68 L 238 66 Z M 81 72 L 79 74 L 87 84 L 87 86 Q 87 89 83 88 L 75 79 L 71 81 L 81 91 L 86 91 L 90 87 L 90 83 L 82 74 Q 83 71 81 72 Z M 67 89 L 65 90 L 60 96 L 62 102 L 69 106 L 75 105 L 77 102 L 76 95 Q 73 90 67 89 Z M 258 89 L 260 95 L 247 102 L 248 104 L 262 97 L 263 100 Q 262 103 266 101 L 262 92 L 258 89 Z M 57 103 L 50 113 Q 49 116 52 115 L 55 111 L 66 118 Q 69 119 68 116 L 56 109 L 58 106 Q 59 102 57 103 Z M 262 106 L 260 107 L 255 114 L 256 118 L 261 121 L 266 121 L 273 116 L 272 109 Q 269 105 262 106 Z M 277 124 L 267 126 L 262 130 Q 261 137 266 139 L 272 139 L 279 137 Q 282 138 280 134 L 267 136 Q 264 135 265 130 L 274 128 L 279 128 L 279 126 L 277 124 Z M 140 130 L 139 133 L 140 135 L 139 137 L 141 138 L 179 139 L 129 189 L 129 191 L 135 195 L 186 145 L 186 184 L 187 184 L 194 184 L 194 130 L 140 130 Z M 46 131 L 44 135 L 54 138 L 43 141 L 41 145 L 55 149 Q 60 151 58 146 L 52 144 Q 48 145 49 142 L 60 139 Q 63 140 61 136 L 46 131 Z M 271 143 L 269 144 L 265 149 L 266 154 L 271 157 Q 273 158 272 155 L 270 153 Q 267 152 268 149 L 272 146 Q 277 145 279 147 Q 281 146 280 150 L 280 152 Q 281 155 277 153 L 279 157 L 281 156 L 283 153 L 282 146 Q 279 141 271 143 Z M 41 153 L 41 156 L 53 158 Q 60 160 58 155 L 56 154 L 41 153 Z M 267 161 L 267 164 L 274 165 Q 275 170 273 172 L 267 171 L 265 174 L 267 175 L 282 177 L 283 174 L 276 173 L 277 166 L 283 167 L 284 167 L 284 163 L 267 161 Z M 41 171 L 42 185 L 45 184 L 44 180 L 59 179 L 59 176 L 44 176 L 44 171 L 41 171 Z M 61 186 L 59 188 L 60 195 L 55 196 L 54 193 Q 55 188 53 189 Q 50 190 52 192 Q 54 199 48 197 L 47 194 Q 49 188 44 190 L 46 201 L 63 198 L 61 186 Z M 266 196 Q 263 197 264 201 Q 265 203 269 202 Q 271 201 270 198 Q 269 195 266 196 Z M 64 203 L 58 205 L 59 211 Q 61 214 62 211 L 61 209 Q 60 206 65 207 Q 67 208 66 213 L 61 216 Q 55 217 54 214 L 56 209 L 54 207 L 51 211 Q 51 217 56 219 Q 66 220 69 214 L 68 207 L 64 203 Z M 253 217 L 251 218 L 246 225 L 252 231 L 256 226 Q 254 222 252 227 L 250 226 Q 249 221 253 220 L 257 221 L 261 226 L 261 229 Q 260 232 256 231 Q 253 233 256 234 L 260 234 L 264 230 L 263 223 Q 260 218 253 217 Z M 242 230 L 236 236 Q 233 235 234 239 L 242 234 L 244 239 L 242 240 L 240 244 L 247 240 L 249 244 L 246 246 Q 241 248 245 250 L 253 244 L 242 230 Z M 76 232 Q 73 233 74 237 Q 75 239 79 238 Q 81 237 80 234 Q 79 231 76 232 Z M 228 243 L 226 245 L 232 256 L 233 257 L 229 261 L 231 262 L 242 255 L 241 252 L 237 255 L 228 243 Z M 100 246 L 89 259 L 92 260 L 96 255 L 101 260 L 97 266 L 100 267 L 110 254 L 107 252 L 104 257 Q 99 258 98 254 L 102 248 L 100 246 Z M 208 255 L 213 270 L 217 271 L 212 257 L 208 255 Z M 116 256 L 114 257 L 112 260 Q 114 263 116 259 L 121 262 Q 120 268 116 271 L 113 270 L 111 270 L 111 265 Q 106 263 108 270 L 114 274 L 119 273 Q 123 270 124 265 L 123 260 Q 122 255 116 256 Z M 202 259 L 200 261 Q 203 263 202 270 L 203 271 L 194 262 L 190 262 L 193 278 L 195 279 L 197 278 L 195 269 L 205 277 L 207 276 L 204 261 L 202 259 Z M 133 262 L 131 263 L 127 268 L 127 271 L 124 277 L 128 278 Q 128 270 134 265 L 137 267 L 137 272 L 134 278 Q 133 283 137 281 L 141 270 L 140 266 Q 138 262 133 262 Z M 151 266 L 149 267 L 145 274 L 146 281 L 151 284 L 156 283 L 160 277 L 160 271 L 158 267 Q 156 265 151 266 Z M 168 266 L 168 281 L 167 280 Q 161 279 163 283 L 176 283 L 177 282 Q 172 282 171 280 L 171 267 L 168 266 Z " /><path fill="rgb(0,0,0)" stroke="rgb(0,0,0)" stroke-width="1" opacity="0" d="M 66.5 92 L 74 97.5 Q 75.9 102.9 72.5 102 L 69.5 103 L 64 98.5 L 63 94.5 L 66.5 92 Z " /><path fill="rgb(0,0,0)" stroke="rgb(0,0,0)" stroke-width="1" opacity="0" d="M 263.5 109 Q 268.8 107.8 270 110.5 Q 271 115 268.5 116 L 260.5 118 L 258 113.5 L 259 111 L 263.5 109 Z " /><path fill="rgb(0,0,0)" stroke="rgb(0,0,0)" stroke-width="1" opacity="0" d="M 151.5 269 Q 156.3 268.3 157 271.5 Q 157.7 277.7 154.5 280 L 151.5 281 L 149 280 L 148 275.5 L 149 271.5 L 151.5 269 Z " /></svg>